<svg width="64" height="94" viewBox="0 0 64 94" fill="none" xmlns="http://www.w3.org/2000/svg">
<g id="Group 625026">
<path id="Ellipse 213" d="M53.6846 66.3536C53.6846 80.7041 43.5745 91.9778 31.5175 91.9778C19.4605 91.9778 9.35034 80.7041 9.35034 66.3536C9.35034 52.0032 19.4605 40.7295 31.5175 40.7295C43.5745 40.7295 53.6846 52.0032 53.6846 66.3536Z" stroke="#7700FF" stroke-width="3"/>
<path id="Vector" d="M31.7834 48.8027C25.186 48.8027 19.5055 53.2206 17.0817 59.5254C17.0155 59.6894 16.9796 59.8663 16.9762 60.0457C16.9728 60.2251 17.0019 60.4035 17.0618 60.5704C17.1217 60.7373 17.2112 60.8894 17.3251 61.0178C17.439 61.1462 17.5749 61.2484 17.7251 61.3183C17.8752 61.3882 18.0366 61.4245 18.1996 61.4251C18.3626 61.4257 18.5241 61.3905 18.6747 61.3216C18.8252 61.2527 18.9618 61.1514 19.0764 61.0238C19.191 60.8962 19.2814 60.7447 19.3422 60.5782C21.3909 55.2491 26.181 51.5045 31.7834 51.5045C35.0886 51.5045 38.1021 52.8043 40.4491 54.9688C40.5726 55.0829 40.7154 55.169 40.8692 55.2223C41.023 55.2756 41.1848 55.2951 41.3454 55.2795C41.5061 55.264 41.6623 55.2138 41.8053 55.1318C41.9483 55.0497 42.0752 54.9375 42.1788 54.8015C42.2824 54.6655 42.3606 54.5083 42.409 54.339C42.4574 54.1697 42.4751 53.9916 42.4609 53.8148C42.4468 53.638 42.4011 53.466 42.3265 53.3086C42.252 53.1513 42.15 53.0116 42.0264 52.8976C39.2554 50.3421 35.6752 48.8027 31.7834 48.8027ZM31.7834 54.2063C30.4958 54.2063 29.2543 54.4487 28.1014 54.8976C27.9493 54.9568 27.8093 55.0484 27.6894 55.1672C27.5695 55.286 27.472 55.4296 27.4026 55.5898C27.3331 55.7501 27.293 55.9238 27.2845 56.1011C27.2761 56.2784 27.2994 56.4558 27.3533 56.6232C27.4071 56.7906 27.4904 56.9447 27.5983 57.0766C27.7062 57.2086 27.8367 57.3158 27.9823 57.3922C28.1279 57.4687 28.2858 57.5128 28.4469 57.5221C28.608 57.5314 28.7691 57.5056 28.9212 57.4463C29.8155 57.0982 30.7758 56.9081 31.7834 56.9081C36.5424 56.9081 40.3747 61.1263 40.3747 66.3643C40.3747 70.351 39.1618 79.4274 39.1618 79.4274C39.131 79.606 39.1333 79.7896 39.1685 79.9671C39.2037 80.1447 39.2712 80.3127 39.3667 80.4609C39.4623 80.6092 39.5841 80.7347 39.7248 80.8299C39.8654 80.9251 40.0221 80.9881 40.1854 81.0151C40.3488 81.0421 40.5154 81.0326 40.6752 80.987C40.8351 80.9415 40.985 80.8609 41.1159 80.7501C41.2469 80.6393 41.3561 80.5006 41.4372 80.3422C41.5182 80.1838 41.5694 80.0091 41.5877 79.8284C41.5877 79.8284 42.8294 70.9207 42.8294 66.3643C42.8294 59.6659 37.8692 54.2063 31.7834 54.2063ZM44.6752 57.2115C44.4625 57.2155 44.2544 57.2803 44.0713 57.3995C43.8881 57.5187 43.7363 57.6883 43.6307 57.8916C43.5251 58.0948 43.4692 58.3248 43.4687 58.559C43.4682 58.7932 43.523 59.0235 43.6277 59.2273C44.683 61.3461 45.2841 63.7725 45.2841 66.3643C45.2841 67.8453 45.0862 69.2694 44.7184 70.6175C44.6652 70.7894 44.644 70.9712 44.6561 71.1522C44.6681 71.3333 44.7132 71.5098 44.7887 71.6712C44.8641 71.8326 44.9683 71.9756 45.095 72.0918C45.2218 72.2079 45.3685 72.2947 45.5264 72.347C45.6843 72.3993 45.8502 72.4161 46.0141 72.3963C46.1781 72.3765 46.3367 72.3205 46.4805 72.2317C46.6244 72.143 46.7505 72.0232 46.8514 71.8796C46.9522 71.736 47.0258 71.5715 47.0676 71.3959C47.5024 69.8018 47.7388 68.1121 47.7388 66.3643C47.7388 63.3121 47.0275 60.4332 45.7803 57.9292C45.6742 57.709 45.5148 57.5254 45.3197 57.3988C45.1247 57.2721 44.9016 57.2073 44.6752 57.2115ZM23.9879 58.354C23.8096 58.3644 23.6355 58.4174 23.4778 58.5095C23.32 58.6015 23.1824 58.7303 23.0746 58.8869C21.6117 60.9482 20.7374 63.5516 20.7374 66.3643C20.7374 72.7186 19.7809 76.8443 19.7809 76.8443C19.7363 77.0179 19.7237 77.1995 19.7438 77.3785C19.764 77.5576 19.8166 77.7303 19.8984 77.8866C19.9802 78.0429 20.0896 78.1796 20.2202 78.2886C20.3507 78.3976 20.4998 78.4768 20.6586 78.5213C20.8174 78.5659 20.9827 78.575 21.1448 78.5482C21.3068 78.5213 21.4624 78.459 21.6022 78.3649C21.742 78.2708 21.8633 78.1469 21.9589 78.0003C22.0545 77.8538 22.1225 77.6877 22.1589 77.5119C22.1589 77.5119 23.192 73.0219 23.192 66.3643C23.192 64.1653 23.8699 62.1543 25.0091 60.5492C25.1574 60.3459 25.2491 60.0997 25.2732 59.8404C25.2972 59.581 25.2526 59.3195 25.1446 59.0874C25.0367 58.8553 24.87 58.6626 24.6648 58.5325C24.4595 58.4023 24.2244 58.3403 23.9879 58.354ZM31.7834 59.6099C28.4088 59.6099 25.6467 62.65 25.6467 66.3643C25.6467 75.8453 24.4601 80.802 24.4601 80.802C24.4121 80.976 24.3964 81.1589 24.4142 81.3397C24.4319 81.5206 24.4826 81.6956 24.5633 81.8543C24.6439 82.013 24.7529 82.1522 24.8836 82.2635C25.0143 82.3747 25.164 82.4558 25.3239 82.5019C25.4837 82.5479 25.6504 82.5579 25.8138 82.5314C25.9773 82.5048 26.1342 82.4422 26.2752 82.3473C26.4161 82.2523 26.5382 82.1271 26.6341 81.979C26.73 81.8309 26.7977 81.663 26.8333 81.4854C26.8333 81.4854 28.1014 76.0985 28.1014 66.3643C28.1014 64.1104 29.7356 62.3117 31.7834 62.3117C33.8312 62.3117 35.4654 64.1104 35.4654 66.3643C35.4654 67.9823 35.4029 69.6712 35.3072 71.3141C35.2955 71.492 35.316 71.6707 35.3674 71.8399C35.4188 72.0091 35.5001 72.1654 35.6067 72.2998C35.7133 72.4342 35.843 72.544 35.9883 72.6229C36.1337 72.7019 36.2918 72.7483 36.4536 72.7597C36.6153 72.771 36.7775 72.7469 36.9307 72.6889C37.084 72.6309 37.2253 72.54 37.3465 72.4216C37.4677 72.3031 37.5664 72.1594 37.6368 71.9988C37.7073 71.8381 37.7482 71.6637 37.7571 71.4856C37.8553 69.7999 37.9201 68.0587 37.9201 66.3643C37.9201 62.65 35.158 59.6099 31.7834 59.6099ZM17.0314 63.9C16.7276 63.9159 16.4401 64.0553 16.2244 64.2913C16.0087 64.5272 15.8803 64.8428 15.864 65.177C15.84 65.5696 15.828 65.9659 15.828 66.3643C15.828 67.8432 15.9961 69.2784 16.3098 70.6492C16.3472 70.8236 16.4157 70.988 16.5113 71.1329C16.6069 71.2779 16.7278 71.4004 16.8668 71.4935C17.0059 71.5866 17.1604 71.6482 17.3213 71.675C17.4822 71.7017 17.6464 71.693 17.8042 71.6492C17.962 71.6055 18.1104 71.5277 18.2406 71.4202C18.3708 71.3128 18.4804 71.178 18.5628 71.0235C18.6452 70.8691 18.699 70.6981 18.7208 70.5206C18.7427 70.3431 18.7323 70.1626 18.6902 69.9896C18.4246 68.8288 18.2827 67.617 18.2827 66.3643C18.2827 66.0252 18.2936 65.6906 18.3138 65.3591C18.328 65.1676 18.3049 64.975 18.246 64.7941C18.1872 64.6132 18.094 64.4482 17.9726 64.3101C17.8512 64.172 17.7045 64.064 17.5422 63.9933C17.3799 63.9226 17.2057 63.8908 17.0314 63.9ZM31.7642 64.995C31.4391 65.0006 31.1293 65.1479 30.9028 65.4046C30.6763 65.6614 30.5516 66.0065 30.556 66.3643C30.556 70.0377 30.3759 73.0677 30.1413 75.4565C30.1208 75.6346 30.1327 75.8154 30.1764 75.9884C30.2201 76.1613 30.2947 76.323 30.3958 76.4639C30.4969 76.6048 30.6225 76.7221 30.7652 76.8089C30.908 76.8958 31.065 76.9504 31.2272 76.9697C31.3893 76.989 31.5534 76.9725 31.7097 76.9213C31.866 76.87 32.0115 76.7849 32.1376 76.671C32.2637 76.5572 32.3679 76.4168 32.4441 76.2581C32.5204 76.0994 32.5671 75.9255 32.5816 75.7467C32.8257 73.2615 33.0107 70.1344 33.0107 66.3643C33.013 66.1836 32.9822 66.0042 32.9204 65.8368C32.8585 65.6694 32.7667 65.5173 32.6505 65.3896C32.5343 65.2619 32.3959 65.1612 32.2437 65.0934C32.0915 65.0256 31.9284 64.9922 31.7642 64.995ZM36.0263 76.1372C35.7221 76.1368 35.4287 76.2608 35.2028 76.485C34.9769 76.7093 34.8347 77.0178 34.8038 77.3509C34.5194 80.0556 34.2524 81.8864 34.2524 81.8864C34.2269 82.0618 34.233 82.2409 34.2704 82.4137C34.3077 82.5864 34.3757 82.7494 34.4703 82.8932C34.5649 83.0371 34.6843 83.159 34.8217 83.2521C34.9591 83.3451 35.1119 83.4075 35.2712 83.4355C35.4305 83.4636 35.5933 83.4569 35.7502 83.4157C35.9072 83.3745 36.0552 83.2997 36.1859 83.1955C36.3165 83.0914 36.4273 82.9599 36.5118 82.8086C36.5963 82.6573 36.6529 82.4892 36.6784 82.3139C36.6784 82.3139 36.9541 80.4206 37.2441 77.6622C37.2666 77.4717 37.2519 77.278 37.2009 77.0942C37.15 76.9104 37.0641 76.7407 36.9488 76.5963C36.8336 76.452 36.6917 76.3364 36.5326 76.2572C36.3735 76.178 36.2009 76.1371 36.0263 76.1372ZM30.5872 79.7097C30.3044 79.7094 30.0301 79.8167 29.8109 80.0133C29.5916 80.2099 29.4408 80.4839 29.3838 80.7888C29.1966 81.7309 29.077 82.145 29.077 82.145C29.0282 82.3144 29.0102 82.4928 29.0241 82.6698C29.038 82.8469 29.0835 83.0192 29.158 83.1769C29.2325 83.3346 29.3345 83.4745 29.4583 83.5887C29.582 83.7029 29.725 83.7892 29.879 83.8424C30.0331 83.8957 30.1952 83.915 30.356 83.8992C30.5169 83.8834 30.6733 83.8329 30.8163 83.7505C30.9594 83.668 31.0863 83.5553 31.1897 83.4188C31.2931 83.2823 31.371 83.1247 31.419 82.955C31.419 82.955 31.5779 82.3887 31.781 81.3666C31.8228 81.1687 31.8235 80.9629 31.783 80.7645C31.7425 80.5662 31.6619 80.3805 31.5472 80.2213C31.4324 80.062 31.2865 79.9333 31.1203 79.8447C30.9541 79.7561 30.7719 79.71 30.5872 79.7097Z" fill="#7700FF"/>
<g id="Group 625025">
<ellipse id="Ellipse 215" cx="31.5173" cy="18.4874" rx="4.52069" ry="5.31846" fill="#7700FF"/>
<path id="Vector 203" d="M31.2515 23.2744V29.1247" stroke="#7700FF" stroke-width="6" stroke-linecap="round"/>
</g>
<path id="Vector 204" d="M14.5549 47.7388L2 2H61.0349L48.0047 47.7388" stroke="#7700FF" stroke-width="3" stroke-linecap="round"/>
</g>
</svg>
