<svg width="81" height="95" viewBox="0 0 81 95" fill="none" xmlns="http://www.w3.org/2000/svg">
<g id="Group 625029">
<rect id="Rectangle 4146" x="1.5" y="1.5" width="31.386" height="40.5088" rx="3.5" stroke="#FF4387" stroke-width="3"/>
<rect id="Rectangle 4147" x="47.114" y="1.5" width="31.386" height="40.5088" rx="3.5" stroke="#FF4387" stroke-width="3"/>
<rect id="Rectangle 4148" x="1.5" y="52.0264" width="31.386" height="40.5088" rx="3.5" stroke="#FF4387" stroke-width="3"/>
<path id="Rectangle 4149" d="M46 56C46 53.2386 48.2386 51 51 51H58V94H51C48.2386 94 46 91.7614 46 89V56Z" fill="#FF4387"/>
<path id="X" d="M12.7332 11.2285L16.85 18.1862H17.0095L21.1463 11.2285H26.0207L19.7906 21.4359L26.1602 31.6432H21.1961L17.0095 24.6755H16.85L12.6634 31.6432H7.71924L14.1088 21.4359L7.83886 11.2285H12.7332Z" fill="#FF4387"/>
<path id="Y" d="M53.3334 11.2285H58.1679L62.823 20.0204H63.0224L67.6775 11.2285H72.512L65.0658 24.4263V31.6432H60.7795V24.4263L53.3334 11.2285Z" fill="#FF4387"/>
<path id="Z" d="M9.14274 82.1686V79.6068L19.3301 65.3125H9.1228V61.7539H24.7528V64.3157L14.5554 78.61H24.7727V82.1686H9.14274Z" fill="#FF4387"/>
<path id="Vector 208" d="M64 52H74C76.7614 52 79 54.2386 79 57V88C79 90.7614 76.7614 93 74 93H64" stroke="#FF4387" stroke-width="3" stroke-linecap="square" stroke-linejoin="round"/>
<g id="Group 625028">
<path id="Polygon 1" d="M74.0457 71.1347C74.5703 71.5349 74.5703 72.3245 74.0457 72.7248L61.9575 81.9472C61.2993 82.4493 60.3509 81.98 60.3509 81.1521L60.3509 62.7073C60.3509 61.8795 61.2993 61.4101 61.9575 61.9123L74.0457 71.1347Z" fill="#FF4387"/>
<rect id="Rectangle 4150" x="57.5438" y="65.9648" width="3.50877" height="12.6316" fill="#FF4387"/>
</g>
</g>
</svg>
