<svg width="102" height="99" viewBox="0 0 102 99" fill="none" xmlns="http://www.w3.org/2000/svg">
<g id="Group 625030">
<g id="Group 625022">
<path id="Vector 200" d="M7.59668 34.4018L2 2H99.5L94.787 34.4018H7.59668Z" stroke="#B0EB10" stroke-width="3"/>
<path id="Vector 201" d="M28.5564 40.4231V34.4023H34.769V40.4231H67.9027V34.4023H73.5236V40.4231H86.2446V89.1909H77.3695V67.5163H60.211V89.1909H17.9062V40.4231H28.5564Z" stroke="#B0EB10" stroke-width="3"/>
<rect id="Rectangle 4144" x="11.426" y="94.4922" width="81.2991" height="4.12387" fill="#B0EB10"/>
<rect id="Rectangle 4145" x="27.6541" y="49.4521" width="21.7432" height="30.5801" stroke="#B0EB10" stroke-width="3"/>
<g id="NFT">
<path d="M42.0823 9.6582V26.7428H38.6047L30.3198 15.9898H30.1803V26.7428H26.1541V9.6582H29.6875L37.9073 20.4028H38.0747V9.6582H42.0823Z" fill="#B0EB10"/>
<path d="M45.4088 26.7428V9.6582H58.0176V12.6363H49.4351V16.7073H57.1807V19.6854H49.4351V26.7428H45.4088Z" fill="#B0EB10"/>
<path d="M60.0004 12.6363V9.6582H75.6405V12.6363H69.8103V26.7428H65.8306V12.6363H60.0004Z" fill="#B0EB10"/>
</g>
</g>
</g>
</svg>
