<svg width="76" height="97" viewBox="0 0 76 97" fill="none" xmlns="http://www.w3.org/2000/svg">
<g id="Group 625027">
<path id="Vector 205" d="M2.46649 52.8417V23.7157L38.1167 2.0459L74 23.7157V67.0552L38.1167 87.7929" stroke="#0ED4FF" stroke-width="3" stroke-linecap="round"/>
<path id="Vector 206" d="M7.12665 26.7453V52.6093H38.1167V82.2013L69.1068 64.2597V26.7453L38.1167 7.63867L7.12665 26.7453Z" stroke="#0ED4FF" stroke-width="3" stroke-linecap="round"/>
<path id="Vector 207" d="M2.43719 59.3662V68.9776V89.3724H11.7358C11.7358 89.3724 11.8259 91.7491 12.6896 92.8887C13.9398 94.5384 15.6072 94.8756 17.6965 94.7641C19.5279 94.6663 20.7218 94.1931 21.9882 92.8887C23.0524 91.7925 22.9419 89.3724 22.9419 89.3724H33.1943V79.5266C32.4629 79.6653 32.0183 79.6653 31.2869 79.5266C28.672 79.0307 27.1808 76.9871 27.2336 74.3693C27.2708 72.5273 27.9162 71.0662 29.3794 69.9152C30.5716 68.9776 33.1943 68.9776 33.1943 68.9776V59.3662H2.43719Z" stroke="#0ED4FF" stroke-width="3" stroke-linecap="round"/>
<g id="NFT">
<path d="M29.3846 29.7734V47.016H25.8477L17.4216 36.1636H17.2797V47.016H13.1849V29.7734H16.7785L25.1384 40.6174H25.3087V29.7734H29.3846Z" fill="#0ED4FF"/>
<path d="M32.7678 47.016V29.7734H45.5914V32.7791H36.8627V36.8877H44.7403V39.8934H36.8627V47.016H32.7678Z" fill="#0ED4FF"/>
<path d="M47.6081 32.7791V29.7734H63.5146V32.7791H57.5852V47.016H53.5376V32.7791H47.6081Z" fill="#0ED4FF"/>
</g>
</g>
</svg>
