<svg width="768" height="81" viewBox="0 0 768 81" fill="none" xmlns="http://www.w3.org/2000/svg">
<path d="M0.702148 70.9036V46.4789C0.702148 46.3415 0.770818 46.1354 0.908156 45.8606C1.04549 45.5171 1.18283 45.2766 1.32017 45.1392C1.32017 45.0705 1.42318 44.9331 1.62918 44.727C1.69785 44.6582 1.80086 44.5895 1.93819 44.5208C2.21287 44.4521 2.72789 44.3491 3.48325 44.2117C4.30728 44.0743 4.85664 43.9712 5.13131 43.9025V43.2841L0.702148 41.9444V9.89352H10.5905V0H66.2126V21.3329H26.4531V28.65C26.1784 28.5126 25.5947 28.2034 24.702 27.7225C23.878 27.1728 23.2943 26.8293 22.951 26.6919H22.333H21.7149C21.5776 26.6919 21.3029 26.7262 20.8909 26.7949C20.5476 26.8637 20.1699 26.9324 19.7579 27.0011C19.3458 27.0698 18.9338 27.1385 18.5218 27.2072C18.1785 27.2759 17.9725 27.3102 17.9038 27.3102C17.6978 27.3789 17.3544 27.4476 16.8737 27.5164C16.4617 27.5851 16.0154 27.6538 15.5347 27.7225C15.054 27.7912 14.6077 27.8599 14.1957 27.9286C13.7836 27.9973 13.509 28.0316 13.3716 28.0316H13.0626H12.7536C12.5476 28.0316 12.1699 27.9973 11.6206 27.9286C11.0712 27.8599 10.4875 27.7912 9.86949 27.7225C9.32014 27.6538 8.77078 27.5851 8.22143 27.5164C7.67207 27.4476 7.29439 27.3789 7.08839 27.3102L6.47036 28.0316C6.47036 28.1003 6.53903 28.2034 6.67637 28.3408C6.81371 28.4782 6.95105 28.5813 7.08839 28.65C7.22572 28.65 7.6034 28.753 8.22143 28.9592C8.83945 29.0966 9.2858 29.1996 9.56048 29.2683C9.76649 29.2683 10.0412 29.3027 10.3845 29.3714C10.7965 29.4401 11.2085 29.5088 11.6206 29.5775C12.0326 29.6462 12.4102 29.7149 12.7536 29.7836C13.0969 29.8523 13.3029 29.8867 13.3716 29.8867C13.715 29.8867 14.333 29.921 15.2257 29.9897C16.1871 30.0584 17.1484 30.1271 18.1098 30.1958C19.1398 30.2646 20.1012 30.3333 20.9939 30.402C21.9553 30.4707 22.6076 30.505 22.951 30.505L26.4531 33.6998V59.4642H66.2126V80.7971H49.629C49.5603 80.7971 49.3543 80.7284 49.0109 80.591C48.7363 80.4536 48.5303 80.3161 48.3929 80.1787C48.2556 80.0413 48.0152 79.8352 47.6719 79.5604C47.3972 79.2169 47.2255 78.9764 47.1569 78.839C47.1569 78.6329 47.1225 78.3237 47.0539 77.9115C46.9852 77.4305 46.9165 76.9152 46.8479 76.3656C46.7792 75.816 46.7105 75.3007 46.6418 74.8197C46.5732 74.3388 46.5045 73.9953 46.4358 73.7892C46.4358 73.6518 46.3672 73.4113 46.2298 73.0678C46.0925 72.7242 45.9552 72.5525 45.8178 72.5525C45.8178 72.4838 45.7148 72.4494 45.5088 72.4494C45.3715 72.3807 45.2341 72.3464 45.0968 72.3464C45.0281 72.3464 44.9251 72.3807 44.7878 72.4494C44.6504 72.4494 44.5818 72.4838 44.5818 72.5525L42.6247 80.7971H10.5905V70.9036H0.702148ZM84.0427 55.3419C83.9053 55.2732 83.5963 55.1701 83.1156 55.0327C82.6349 54.8953 82.2916 54.7922 82.0856 54.7235C81.9482 54.7235 81.6049 54.6548 81.0555 54.5174C80.5062 54.38 79.8882 54.2426 79.2015 54.1052C78.5835 53.9678 77.9998 53.8647 77.4504 53.796C76.9011 53.6586 76.5577 53.5555 76.4204 53.4868L73.8453 50.9104C73.7079 50.773 73.5706 50.5669 73.4333 50.2921C73.2959 49.9485 73.2273 49.7424 73.2273 49.6737V0H134.927V46.1698H127.923V49.9829H134.927V80.7971H108.558V51.5287H99.5962V80.7971H89.6049C89.6049 80.6597 89.6049 80.3505 89.6049 79.8696C89.6735 79.3886 89.7079 79.0451 89.7079 78.839C89.7765 78.7703 89.9139 78.4955 90.1199 78.0145C90.3259 77.4649 90.4289 77.1214 90.4289 76.9839V73.3769V69.3577C90.4289 69.0829 90.3946 68.5332 90.3259 67.7088C90.2572 66.8843 90.1886 66.0599 90.1199 65.2354C90.0512 64.3422 89.9825 63.5178 89.9139 62.762C89.8452 61.9376 89.7765 61.3879 89.7079 61.1131C89.7079 60.9757 89.6392 60.5635 89.5019 59.8764C89.3645 59.1894 89.2272 58.7428 89.0899 58.5367C89.0899 58.3992 88.9868 58.1931 88.7808 57.9183C88.6435 57.5748 88.5405 57.3687 88.4718 57.3V73.7892C88.4718 73.9266 88.4032 74.3045 88.2658 74.9228C88.1285 75.5411 87.9911 76.0221 87.8538 76.3656C87.7851 76.503 87.6821 76.7435 87.5448 77.087C87.4074 77.3618 87.3045 77.5336 87.2358 77.6023C87.0298 77.8084 86.7551 78.1176 86.4118 78.5298C86.0684 78.8733 85.7251 79.2169 85.3817 79.5604C85.0384 79.9039 84.7294 80.2131 84.4547 80.4879C84.18 80.694 84.0427 80.7971 84.0427 80.7971H73.2273V57.9183C73.2273 57.8496 73.4676 57.7465 73.9483 57.6091C74.429 57.4717 74.841 57.3687 75.1843 57.3C75.253 57.3 75.459 57.2656 75.8024 57.1969C76.2144 57.1282 76.6264 57.0595 77.0384 56.9908C77.4504 56.8534 77.8281 56.7503 78.1714 56.6816C78.5835 56.6129 78.8581 56.5786 78.9955 56.5786C79.2015 56.5786 79.5448 56.5099 80.0255 56.3724C80.5062 56.235 80.9869 56.0976 81.4676 55.9602C82.0169 55.8228 82.5319 55.7198 83.0126 55.651C83.4933 55.5136 83.8367 55.4106 84.0427 55.3419ZM99.9053 29.2683H108.558V25.7644H120.918C120.712 25.627 120.197 25.4552 119.373 25.2491C118.549 24.9743 118 24.8369 117.725 24.8369C117.588 24.8369 117.279 24.8025 116.798 24.7338C116.317 24.6651 115.768 24.5964 115.15 24.5277C114.6 24.459 114.085 24.3903 113.605 24.3216C113.124 24.2529 112.815 24.2185 112.678 24.2185C112.334 24.1498 111.922 24.1155 111.442 24.1155C110.961 24.0467 110.515 23.9437 110.103 23.8063C109.622 23.7376 109.107 23.6345 108.558 23.4971V21.6421H99.9053V29.2683ZM151.068 44.2117V36.5854H142.519V29.5775H153.952C153.746 29.4401 153.231 29.2683 152.407 29.0622C151.583 28.7874 151.034 28.65 150.759 28.65C150.622 28.65 150.313 28.6156 149.832 28.5469C149.351 28.4782 148.802 28.4095 148.184 28.3408C147.635 28.2721 147.12 28.2034 146.639 28.1347C146.158 28.066 145.849 28.0316 145.712 28.0316C145.231 27.8942 144.579 27.7568 143.755 27.6194C142.931 27.482 142.519 27.3789 142.519 27.3102V0H168.888V29.2683H177.54C177.54 29.0622 177.54 28.6843 177.54 28.1347C177.609 27.5851 177.677 27.0011 177.746 26.3827C177.815 25.7644 177.883 25.1804 177.952 24.6307C178.021 24.0811 178.089 23.7032 178.158 23.4971C178.158 23.3597 178.227 23.1536 178.364 22.8788C178.57 22.5352 178.707 22.3291 178.776 22.2604C178.845 22.1917 179.016 22.0887 179.291 21.9512C179.635 21.8138 179.875 21.7108 180.012 21.6421C180.218 21.5734 180.63 21.6077 181.248 21.7451C181.935 21.8138 182.381 21.8482 182.587 21.8482V20.4054C182.381 20.3367 181.935 20.2336 181.248 20.0962C180.63 19.9588 180.218 19.8214 180.012 19.684C179.875 19.684 179.703 19.6496 179.497 19.5809C179.291 19.5122 179.085 19.4435 178.879 19.3748C178.604 19.3061 178.364 19.203 178.158 19.0656V0H204.218V5.97733C204.081 5.97733 203.84 5.94298 203.497 5.87428C203.222 5.80557 203.016 5.77122 202.879 5.77122C202.81 5.70251 202.501 5.4964 201.952 5.15287C201.471 4.74064 201.162 4.50017 201.025 4.43147C200.888 4.36276 200.75 4.29406 200.613 4.22535C200.544 4.15665 200.441 4.08794 200.304 4.01924C200.098 3.95053 199.926 3.88183 199.789 3.81312C199.652 3.81312 199.377 3.84747 198.965 3.91618C198.622 3.98488 198.244 4.05359 197.832 4.1223C197.42 4.191 197.008 4.25971 196.596 4.32841C196.252 4.39711 196.046 4.43147 195.978 4.43147C195.634 4.50017 195.222 4.56888 194.742 4.63758C194.261 4.70629 193.78 4.775 193.3 4.8437C192.819 4.91241 192.407 4.98111 192.064 5.04982C191.72 5.04982 191.514 5.04982 191.446 5.04982C191.171 5.04982 190.656 5.08417 189.901 5.15287C189.214 5.15287 188.458 5.15287 187.634 5.15287C186.81 5.15287 186.021 5.15287 185.265 5.15287C184.579 5.08417 184.098 5.04982 183.823 5.04982C183.892 5.18723 183.995 5.32464 184.132 5.46205C184.27 5.59946 184.373 5.70251 184.441 5.77122C184.579 5.83992 184.888 5.94298 185.368 6.08039C185.849 6.2178 186.192 6.32086 186.398 6.38955C186.536 6.45827 186.776 6.52697 187.119 6.59568C187.463 6.66438 187.806 6.73309 188.149 6.80179C188.493 6.8705 188.802 6.9392 189.077 7.00791C189.351 7.00791 189.523 7.00791 189.592 7.00791C190.004 7.00791 190.69 7.04226 191.652 7.11097C192.682 7.17967 193.78 7.24838 194.948 7.31708C196.115 7.38579 197.214 7.45449 198.244 7.5232C199.274 7.5919 199.995 7.62625 200.407 7.62625C200.544 7.76366 200.75 7.96978 201.025 8.2446C201.368 8.51942 201.677 8.82859 201.952 9.17212C202.295 9.51564 202.604 9.85917 202.879 10.2027C203.222 10.4775 203.463 10.6836 203.6 10.821C203.669 10.9584 203.772 11.1646 203.909 11.4394C204.115 11.7142 204.218 11.9203 204.218 12.0577V36.5854H195.566V44.2117H187.325V80.7971H178.776L178.158 80.1787C178.089 80.11 177.883 79.8696 177.54 79.4573C177.265 79.0451 176.922 78.6329 176.51 78.2206C176.167 77.8084 175.823 77.4305 175.48 77.087C175.205 76.6748 175.034 76.4343 174.965 76.3656C174.896 76.2969 174.828 76.2282 174.759 76.1595C174.759 76.0908 174.725 76.0221 174.656 75.9534C174.587 75.8847 174.484 75.816 174.347 75.7473H174.038C173.969 75.7473 173.901 75.7816 173.832 75.8503C173.832 75.9877 173.798 76.1938 173.729 76.4687C173.66 76.6748 173.626 76.8465 173.626 76.9839C173.695 77.2588 173.798 77.7397 173.935 78.4268C174.072 79.0451 174.21 79.423 174.347 79.5604L174.965 80.1787V80.4879V80.694C174.965 80.7627 174.999 80.7971 175.068 80.7971H160.647V44.2117H151.068ZM221.951 55.3419C221.813 55.2732 221.504 55.1701 221.024 55.0327C220.543 54.8953 220.2 54.7922 219.994 54.7235C219.856 54.7235 219.513 54.6548 218.964 54.5174C218.414 54.38 217.796 54.2426 217.11 54.1052C216.491 53.9678 215.908 53.8647 215.358 53.796C214.809 53.6586 214.466 53.5555 214.328 53.4868L211.753 50.9104C211.616 50.773 211.479 50.5669 211.341 50.2921C211.204 49.9485 211.135 49.7424 211.135 49.6737V0H272.835V57.6091H237.504V80.7971H227.513C227.513 80.6597 227.513 80.3505 227.513 79.8696C227.582 79.3886 227.616 79.0451 227.616 78.839C227.685 78.7703 227.822 78.4955 228.028 78.0145C228.234 77.4649 228.337 77.1214 228.337 76.9839V73.3769V69.3577C228.337 69.0829 228.303 68.5332 228.234 67.7088C228.165 66.8843 228.097 66.0599 228.028 65.2354C227.959 64.3422 227.891 63.5178 227.822 62.762C227.753 61.9376 227.685 61.3879 227.616 61.1131C227.616 60.9757 227.547 60.5635 227.41 59.8764C227.273 59.1894 227.135 58.7428 226.998 58.5367C226.998 58.3992 226.895 58.1931 226.689 57.9183C226.552 57.5748 226.449 57.3687 226.38 57.3V73.7892C226.38 73.9266 226.311 74.3045 226.174 74.9228C226.036 75.5411 225.899 76.0221 225.762 76.3656C225.693 76.503 225.59 76.7435 225.453 77.087C225.315 77.3618 225.212 77.5336 225.144 77.6023C224.938 77.8084 224.663 78.1176 224.32 78.5298C223.976 78.8733 223.633 79.2169 223.29 79.5604C222.946 79.9039 222.637 80.2131 222.363 80.4879C222.088 80.694 221.951 80.7971 221.951 80.7971H211.135V57.9183C211.135 57.8496 211.376 57.7465 211.856 57.6091C212.337 57.4717 212.749 57.3687 213.092 57.3C213.161 57.3 213.367 57.2656 213.71 57.1969C214.122 57.1282 214.534 57.0595 214.946 56.9908C215.358 56.8534 215.736 56.7503 216.079 56.6816C216.491 56.6129 216.766 56.5786 216.904 56.5786C217.11 56.5786 217.453 56.5099 217.934 56.3724C218.414 56.235 218.895 56.0976 219.376 55.9602C219.925 55.8228 220.44 55.7198 220.921 55.651C221.401 55.5136 221.745 55.4106 221.951 55.3419ZM237.813 38.1313H246.466V25.7644H258.826C258.62 25.627 258.105 25.4552 257.281 25.2491C256.457 24.9743 255.908 24.8369 255.633 24.8369C255.496 24.8369 255.187 24.8025 254.706 24.7338C254.225 24.6651 253.676 24.5964 253.058 24.5277C252.508 24.459 251.993 24.3903 251.513 24.3216C251.032 24.2529 250.723 24.2185 250.586 24.2185C250.242 24.1498 249.83 24.1155 249.35 24.1155C248.869 24.0467 248.423 23.9437 248.011 23.8063C247.53 23.7376 247.015 23.6345 246.466 23.4971V19.0656H237.813V38.1313ZM301.47 34.3181C301.538 34.3181 301.573 34.2151 301.573 34.009V33.9059C301.573 33.8372 301.538 33.7685 301.47 33.6998C301.401 33.6998 301.126 33.6311 300.646 33.4937C300.165 33.2876 299.822 33.1502 299.616 33.0815C299.341 33.0128 298.826 32.9097 298.071 32.7723C297.384 32.5662 296.937 32.4631 296.731 32.4631V21.3329H279.221V0H340.92V21.0237H334.534C334.465 21.0237 334.328 20.7833 334.122 20.3023C333.984 19.8214 333.916 19.4092 333.916 19.0656C333.916 18.9969 333.916 18.8252 333.916 18.5503C333.916 18.2068 333.916 17.8633 333.916 17.5198C333.916 17.1075 333.916 16.764 333.916 16.4892C333.916 16.1457 333.916 15.9396 333.916 15.8709L333.607 15.5617C333.401 15.493 333.298 15.3899 333.298 15.2525C333.229 15.1838 333.126 14.9777 332.989 14.6342C332.851 14.2906 332.748 14.0845 332.68 14.0158C332.542 13.9471 332.302 13.8441 331.959 13.7066C331.615 13.5692 331.409 13.4662 331.341 13.3975C331.272 13.2601 331.169 13.054 331.032 12.7791C330.894 12.4356 330.791 12.1951 330.723 12.0577C330.654 12.0577 330.517 11.989 330.311 11.8516C330.173 11.6455 330.105 11.5081 330.105 11.4394C330.036 11.302 329.83 10.9928 329.487 10.5119C329.143 9.96222 328.903 9.65305 328.766 9.58435C328.628 9.37823 328.457 9.13776 328.251 8.86294C328.045 8.58812 327.839 8.3133 327.633 8.03848C327.358 7.76366 327.118 7.42014 326.912 7.00791H326.294C326.294 7.21402 326.362 7.66061 326.5 8.34766C326.706 8.966 326.843 9.37823 326.912 9.58435C326.98 9.58435 327.083 9.6874 327.221 9.89352C327.427 10.0309 327.53 10.134 327.53 10.2027C327.598 10.2714 327.701 10.4775 327.839 10.821C328.045 11.1646 328.148 11.3707 328.148 11.4394L328.766 12.0577C328.834 12.1951 328.834 12.5387 328.766 13.0883C328.766 13.5692 328.766 13.8784 328.766 14.0158C328.903 14.1532 329.212 14.4968 329.693 15.0464C330.242 15.5273 330.585 15.8021 330.723 15.8709C330.86 16.0083 330.997 16.2487 331.135 16.5923C331.272 16.8671 331.341 17.0732 331.341 17.2106C331.409 17.5541 331.478 18.2412 331.547 19.2718C331.615 20.3023 331.65 20.9894 331.65 21.3329H323.409V80.7971H318.053C317.985 80.4536 317.882 79.8352 317.744 78.942C317.607 77.9802 317.47 77.3275 317.332 76.9839C317.332 76.8465 317.229 76.4687 317.023 75.8503C316.886 75.1633 316.783 74.6823 316.714 74.4075C316.646 74.1327 316.543 73.7548 316.405 73.2739C316.268 72.7929 316.165 72.5525 316.096 72.5525L315.89 72.4494C315.821 72.4494 315.753 72.4838 315.684 72.5525C315.684 72.5525 315.65 72.5525 315.581 72.5525H315.478C315.409 72.5525 315.272 72.6555 315.066 72.8616C314.929 72.9991 314.86 73.1021 314.86 73.1708C314.86 73.3769 314.826 73.7205 314.757 74.2014C314.688 74.6823 314.62 75.1976 314.551 75.7473C314.482 76.2282 314.414 76.7091 314.345 77.1901C314.276 77.671 314.242 78.0145 314.242 78.2206C314.242 78.358 314.139 78.5985 313.933 78.942C313.796 79.2169 313.658 79.423 313.521 79.5604C313.521 79.6291 313.418 79.7321 313.212 79.8696C313.075 80.007 312.972 80.11 312.903 80.1787C312.766 80.3161 312.525 80.4536 312.182 80.591C311.907 80.7284 311.736 80.7971 311.667 80.7971H297.04V36.2762C297.04 36.1388 297.178 35.9327 297.452 35.6579C297.796 35.3144 298.071 35.1083 298.277 35.0396C298.551 34.9021 299.066 34.7647 299.822 34.6273C300.646 34.4212 301.195 34.3181 301.47 34.3181ZM352.266 69.3577C352.266 69.3577 352.301 69.289 352.369 69.1516V69.0485C352.369 68.8424 352.335 68.7393 352.266 68.7393C352.266 68.6706 352.026 68.5676 351.545 68.4302C351.065 68.2928 350.687 68.1897 350.412 68.121C350.206 67.9836 349.76 67.8462 349.073 67.7088C348.455 67.5714 348.043 67.4683 347.837 67.3996V0H378.326C378.464 0 378.67 0.171762 378.944 0.515287C379.288 0.858812 379.528 1.09928 379.665 1.23669C379.734 1.3741 379.837 1.68327 379.974 2.16421C380.112 2.64514 380.215 2.98866 380.283 3.19478C380.283 3.33219 380.318 3.60701 380.387 4.01924C380.455 4.43147 380.524 4.91241 380.592 5.46205C380.661 5.94298 380.73 6.42392 380.799 6.90485C380.867 7.31708 380.901 7.55755 380.901 7.62625C380.901 7.69496 380.97 7.83237 381.108 8.03848C381.245 8.17589 381.382 8.2446 381.52 8.2446L381.829 8.34766H382.035C382.103 8.34766 382.138 8.3133 382.138 8.2446C382.206 8.03848 382.275 7.69496 382.344 7.21403C382.481 6.73309 382.618 6.25215 382.756 5.77122C382.962 5.22158 383.099 4.70629 383.168 4.22535C383.305 3.74442 383.408 3.40089 383.477 3.19478C383.545 2.98866 383.648 2.47338 383.786 1.64892C383.923 0.82446 384.026 0.27482 384.095 0H393.571L398.721 4.43147C398.79 4.50017 399.065 4.50017 399.545 4.43147C400.095 4.29406 400.713 4.1223 401.399 3.91618C402.086 3.71007 402.773 3.50395 403.459 3.29784C404.146 3.02302 404.695 2.78255 405.107 2.57643C405.176 2.50773 405.348 2.37032 405.622 2.16421C405.897 1.88939 406.172 1.61457 406.446 1.33975C406.721 1.06493 406.961 0.82446 407.167 0.618345C407.374 0.343513 407.511 0.13741 407.579 0H417.777V35.0396L417.159 35.6579C417.022 35.7953 416.781 35.9327 416.438 36.0701C416.163 36.2075 415.957 36.2762 415.82 36.2762C415.751 36.3449 415.442 36.3449 414.893 36.2762C414.412 36.2075 414.103 36.2075 413.966 36.2762C413.897 36.3449 413.76 36.448 413.554 36.5854C413.416 36.7228 413.348 36.8259 413.348 36.8946C413.485 36.9633 413.691 37.1007 413.966 37.3068C414.24 37.4442 414.446 37.5129 414.584 37.5129C414.721 37.5816 415.133 37.6847 415.82 37.8221C416.575 37.9595 417.022 38.0626 417.159 38.1313C417.296 38.2 417.434 38.303 417.571 38.4404C417.708 38.5779 417.777 38.7153 417.777 38.8527V80.7971H347.837V71.2127C347.837 71.144 348.009 70.9723 348.352 70.6974C348.696 70.3539 348.936 70.1134 349.073 69.976C349.348 69.8386 349.863 69.7012 350.618 69.5638C351.442 69.4264 351.992 69.3577 352.266 69.3577ZM373.897 59.155H392.026V52.3532C392.095 52.3532 392.232 52.3189 392.438 52.2501C392.713 52.1814 392.884 52.1471 392.953 52.1471C393.09 52.2158 393.502 52.4563 394.189 52.8685C394.944 53.212 395.391 53.4181 395.528 53.4868H396.661H398.103C398.172 53.4868 398.378 53.4525 398.721 53.3838C399.133 53.2464 399.545 53.1433 399.957 53.0746C400.369 53.0059 400.747 52.9372 401.09 52.8685C401.502 52.7998 401.777 52.7654 401.914 52.7654C402.326 52.7654 403.013 52.7654 403.974 52.7654C404.936 52.6967 405.966 52.6624 407.064 52.6624C408.232 52.6624 409.296 52.6624 410.258 52.6624C411.219 52.5937 411.906 52.5593 412.318 52.5593C412.318 52.4219 412.215 52.2845 412.009 52.1471C411.94 52.0784 411.734 51.9753 411.391 51.8379C411.116 51.7005 410.91 51.5975 410.773 51.5287C410.498 51.46 409.949 51.357 409.125 51.2196C408.301 51.0135 407.786 50.9104 407.579 50.9104C407.167 50.9104 406.412 50.876 405.313 50.8073C404.283 50.7386 403.15 50.6699 401.914 50.6012C400.678 50.5325 399.511 50.4638 398.412 50.3951C397.313 50.3264 396.558 50.2921 396.146 50.2921L392.026 46.4789V21.6421H373.897V59.155ZM425.995 70.9036V46.4789C425.995 46.3415 426.064 46.1354 426.201 45.8606C426.338 45.5171 426.476 45.2766 426.613 45.1392C426.613 45.0705 426.716 44.9331 426.922 44.727C426.991 44.6582 427.094 44.5895 427.231 44.5208C427.506 44.4521 428.021 44.3491 428.776 44.2117C429.6 44.0743 430.15 43.9712 430.424 43.9025V43.2841L425.995 41.9444V9.89352H435.883V0H491.506V21.3329H451.746V28.65C451.471 28.5126 450.888 28.2034 449.995 27.7225C449.171 27.1728 448.587 26.8293 448.244 26.6919H447.626H447.008C446.871 26.6919 446.596 26.7262 446.184 26.7949C445.841 26.8637 445.463 26.9324 445.051 27.0011C444.639 27.0698 444.227 27.1385 443.815 27.2072C443.471 27.2759 443.265 27.3102 443.197 27.3102C442.991 27.3789 442.647 27.4476 442.167 27.5164C441.755 27.5851 441.308 27.6538 440.828 27.7225C440.347 27.7912 439.901 27.8599 439.489 27.9286C439.077 27.9973 438.802 28.0316 438.665 28.0316H438.356H438.047C437.841 28.0316 437.463 27.9973 436.914 27.9286C436.364 27.8599 435.78 27.7912 435.162 27.7225C434.613 27.6538 434.064 27.5851 433.514 27.5164C432.965 27.4476 432.587 27.3789 432.381 27.3102L431.763 28.0316C431.763 28.1003 431.832 28.2034 431.969 28.3408C432.107 28.4782 432.244 28.5813 432.381 28.65C432.519 28.65 432.896 28.753 433.514 28.9592C434.132 29.0966 434.579 29.1996 434.853 29.2683C435.059 29.2683 435.334 29.3027 435.677 29.3714C436.09 29.4401 436.501 29.5088 436.914 29.5775C437.326 29.6462 437.703 29.7149 438.047 29.7836C438.39 29.8523 438.596 29.8867 438.665 29.8867C439.008 29.8867 439.626 29.921 440.519 29.9897C441.48 30.0584 442.441 30.1271 443.403 30.1958C444.433 30.2646 445.394 30.3333 446.287 30.402C447.248 30.4707 447.901 30.505 448.244 30.505L451.746 33.6998V59.4642H491.506V80.7971H474.922C474.853 80.7971 474.647 80.7284 474.304 80.591C474.029 80.4536 473.823 80.3161 473.686 80.1787C473.549 80.0413 473.308 79.8352 472.965 79.5604C472.69 79.2169 472.519 78.9764 472.45 78.839C472.45 78.6329 472.415 78.3237 472.347 77.9115C472.278 77.4305 472.21 76.9152 472.141 76.3656C472.072 75.816 472.003 75.3007 471.935 74.8197C471.866 74.3388 471.797 73.9953 471.729 73.7892C471.729 73.6518 471.66 73.4113 471.523 73.0678C471.385 72.7242 471.248 72.5525 471.111 72.5525C471.111 72.4838 471.008 72.4494 470.802 72.4494C470.664 72.3807 470.527 72.3464 470.39 72.3464C470.321 72.3464 470.218 72.3807 470.081 72.4494C469.943 72.4494 469.875 72.4838 469.875 72.5525L467.918 80.7971H435.883V70.9036H425.995ZM509.336 55.3419C509.199 55.2732 508.89 55.1701 508.409 55.0327C507.929 54.8953 507.585 54.7922 507.379 54.7235C507.242 54.7235 506.898 54.6548 506.349 54.5174C505.8 54.38 505.182 54.2426 504.495 54.1052C503.877 53.9678 503.293 53.8647 502.744 53.796C502.195 53.6586 501.851 53.5555 501.714 53.4868L499.139 50.9104C499.002 50.773 498.864 50.5669 498.727 50.2921C498.59 49.9485 498.521 49.7424 498.521 49.6737V0H560.22V46.1698H553.216V49.9829H560.22V80.7971H533.851V51.5287H524.89V80.7971H514.898C514.898 80.6597 514.898 80.3505 514.898 79.8696C514.967 79.3886 515.001 79.0451 515.001 78.839C515.07 78.7703 515.207 78.4955 515.413 78.0145C515.619 77.4649 515.722 77.1214 515.722 76.9839V73.3769V69.3577C515.722 69.0829 515.688 68.5332 515.619 67.7088C515.551 66.8843 515.482 66.0599 515.413 65.2354C515.345 64.3422 515.276 63.5178 515.207 62.762C515.139 61.9376 515.07 61.3879 515.001 61.1131C515.001 60.9757 514.933 60.5635 514.795 59.8764C514.658 59.1894 514.521 58.7428 514.383 58.5367C514.383 58.3992 514.28 58.1931 514.074 57.9183C513.937 57.5748 513.834 57.3687 513.765 57.3V73.7892C513.765 73.9266 513.697 74.3045 513.559 74.9228C513.422 75.5411 513.285 76.0221 513.147 76.3656C513.079 76.503 512.976 76.7435 512.838 77.087C512.701 77.3618 512.598 77.5336 512.529 77.6023C512.323 77.8084 512.049 78.1176 511.705 78.5298C511.362 78.8733 511.019 79.2169 510.675 79.5604C510.332 79.9039 510.023 80.2131 509.748 80.4879C509.474 80.694 509.336 80.7971 509.336 80.7971H498.521V57.9183C498.521 57.8496 498.761 57.7465 499.242 57.6091C499.723 57.4717 500.135 57.3687 500.478 57.3C500.547 57.3 500.753 57.2656 501.096 57.1969C501.508 57.1282 501.92 57.0595 502.332 56.9908C502.744 56.8534 503.122 56.7503 503.465 56.6816C503.877 56.6129 504.152 56.5786 504.289 56.5786C504.495 56.5786 504.838 56.5099 505.319 56.3724C505.8 56.235 506.28 56.0976 506.761 55.9602C507.311 55.8228 507.826 55.7198 508.306 55.651C508.787 55.5136 509.13 55.4106 509.336 55.3419ZM525.199 29.2683H533.851V25.7644H546.212C546.006 25.627 545.491 25.4552 544.667 25.2491C543.843 24.9743 543.293 24.8369 543.018 24.8369C542.881 24.8369 542.572 24.8025 542.091 24.7338C541.611 24.6651 541.061 24.5964 540.443 24.5277C539.894 24.459 539.379 24.3903 538.898 24.3216C538.418 24.2529 538.109 24.2185 537.971 24.2185C537.628 24.1498 537.216 24.1155 536.735 24.1155C536.255 24.0467 535.808 23.9437 535.396 23.8063C534.916 23.7376 534.401 23.6345 533.851 23.4971V21.6421H525.199V29.2683ZM612.309 0C612.447 0.206115 612.721 0.480935 613.133 0.82446C613.614 1.09928 613.957 1.23669 614.164 1.23669C614.438 1.23669 614.885 1.09928 615.503 0.82446C616.189 0.480935 616.601 0.206115 616.739 0H630.129V63.2773C629.992 63.2773 629.648 63.243 629.099 63.1742C628.618 63.1055 628.309 63.0368 628.172 62.9681C628.035 62.9681 627.623 62.762 626.936 62.3498C626.249 61.9376 625.837 61.7314 625.7 61.7314C625.494 61.7314 625.082 61.6971 624.464 61.6284C623.846 61.5597 623.159 61.491 622.404 61.4223C621.717 61.3536 620.996 61.2849 620.241 61.2162C619.554 61.1474 619.039 61.1131 618.696 61.1131C618.627 61.1131 618.387 61.1131 617.975 61.1131C617.631 61.1131 617.219 61.1131 616.739 61.1131C616.327 61.0444 615.88 61.01 615.4 61.01C614.987 61.01 614.644 61.01 614.37 61.01C614.095 61.01 613.717 61.01 613.236 61.01C612.824 61.01 612.412 61.0444 612 61.1131C611.588 61.1131 611.211 61.1131 610.867 61.1131C610.593 61.1131 610.421 61.1131 610.352 61.1131C610.284 61.1131 610.009 61.1818 609.528 61.3192C609.048 61.4566 608.704 61.594 608.498 61.7314C608.292 61.8688 607.846 62.075 607.159 62.3498C606.473 62.6246 606.061 62.8307 605.923 62.9681L605.305 63.5865C605.237 63.7239 605.202 63.8269 605.202 63.8956V64.3079C605.202 64.3766 605.202 64.4796 605.202 64.6171C605.271 64.7545 605.305 64.8575 605.305 64.9262C605.374 64.7888 605.477 64.6514 605.614 64.514C605.751 64.3766 605.854 64.3079 605.923 64.3079C606.061 64.1705 606.267 64.0331 606.541 63.8956C606.885 63.7582 607.125 63.6552 607.262 63.5865C607.468 63.4491 607.88 63.3117 608.498 63.1742C609.185 63.0368 609.597 62.9681 609.734 62.9681H613.545H617.357C617.425 62.9681 617.631 63.0025 617.975 63.0712C618.318 63.0712 618.696 63.1055 619.108 63.1742C619.52 63.243 619.897 63.3117 620.241 63.3804C620.653 63.4491 620.962 63.5178 621.168 63.5865C621.305 63.6552 621.614 63.7582 622.095 63.8956C622.644 64.0331 622.987 64.1705 623.125 64.3079C623.262 64.3766 623.571 64.5827 624.052 64.9262C624.601 65.2697 624.91 65.4759 624.979 65.5446C625.116 65.6133 625.528 65.7163 626.215 65.8537C626.97 65.9911 627.417 66.0942 627.554 66.1629C627.691 66.3003 627.897 66.4377 628.172 66.5751C628.515 66.6438 628.824 66.7469 629.099 66.8843C629.374 67.0904 629.717 67.2622 630.129 67.3996V80.7971H603.76V59.155H594.799V81.0032C594.524 81.0032 594.078 81.0032 593.46 81.0032C592.842 81.0032 592.155 80.9688 591.4 80.9001C590.713 80.9001 590.061 80.8658 589.443 80.7971C588.825 80.7971 588.378 80.7971 588.104 80.7971C587.76 80.7284 587.108 80.6253 586.146 80.4879C585.185 80.3505 584.567 80.2474 584.292 80.1787C584.155 80.11 583.743 79.8696 583.056 79.4573C582.37 79.0451 581.958 78.839 581.82 78.839C581.477 78.9077 580.996 79.1825 580.378 79.6634C579.76 80.1444 579.383 80.5223 579.245 80.7971H568.43V0H612.309ZM595.108 39.471H603.451V19.0656H595.108V39.471ZM699.421 0V21.0237H683.456V15.8709C683.387 15.8709 683.284 15.8021 683.147 15.6647C683.009 15.4586 682.906 15.3212 682.838 15.2525C682.769 15.1838 682.666 14.9777 682.529 14.6342C682.391 14.2906 682.288 14.0845 682.22 14.0158C682.151 13.9471 681.945 13.8441 681.602 13.7066C681.258 13.5692 681.052 13.4662 680.984 13.3975C680.846 13.2601 680.709 13.054 680.572 12.7791C680.434 12.4356 680.331 12.1951 680.263 12.0577L679.645 11.4394C679.576 11.302 679.37 10.9928 679.026 10.5119C678.683 9.96222 678.477 9.65305 678.409 9.58435C678.271 9.37823 678.065 9.13776 677.79 8.86294C677.584 8.58812 677.378 8.3133 677.172 8.03848C676.898 7.76366 676.657 7.42014 676.451 7.00791H675.833C675.902 7.21402 676.005 7.66061 676.142 8.34766C676.28 8.966 676.383 9.37823 676.451 9.58435C676.52 9.58435 676.623 9.6874 676.76 9.89352C676.966 10.0309 677.104 10.134 677.172 10.2027C677.172 10.2714 677.241 10.4775 677.378 10.821C677.584 11.1646 677.722 11.3707 677.79 11.4394C677.79 11.5768 677.893 11.6798 678.099 11.7486L678.409 12.0577C678.477 12.1951 678.477 12.5387 678.409 13.0883C678.34 13.5692 678.34 13.8784 678.409 14.0158C678.477 14.1532 678.786 14.4968 679.336 15.0464C679.885 15.5273 680.194 15.8021 680.263 15.8709C680.4 16.0083 680.537 16.2487 680.675 16.5923C680.881 16.8671 680.984 17.0732 680.984 17.2106V19.0656V20.4054L679.645 21.3329H665.018V29.5775H699.421V50.9104H680.16C680.16 50.773 680.16 50.5669 680.16 50.2921C680.228 49.9485 680.263 49.7424 680.263 49.6737C680.331 49.4676 680.434 49.021 680.572 48.334C680.778 47.6469 680.984 46.9255 681.19 46.1698C681.464 45.3453 681.67 44.5895 681.808 43.9025C682.014 43.2154 682.151 42.8032 682.22 42.6658C682.22 42.5971 682.22 42.494 682.22 42.3566C682.288 42.2192 682.323 42.0818 682.323 41.9444C682.323 41.8757 682.288 41.7726 682.22 41.6352C682.22 41.4978 682.22 41.3948 682.22 41.3261C682.014 41.4635 681.67 41.7726 681.19 42.2536C680.709 42.7345 680.4 43.078 680.263 43.2841C680.125 43.559 679.851 44.0743 679.439 44.83C679.095 45.5858 678.717 46.3759 678.305 47.2003C677.893 48.0248 677.516 48.8493 677.172 49.6737C676.829 50.4295 676.589 50.9448 676.451 51.2196H664.709V80.7971H638.34V0H699.421ZM727.969 34.3181C728.038 34.3181 728.072 34.2151 728.072 34.009V33.9059C728.072 33.8372 728.038 33.7685 727.969 33.6998C727.901 33.6998 727.626 33.6311 727.145 33.4937C726.665 33.2876 726.321 33.1502 726.115 33.0815C725.841 33.0128 725.326 32.9097 724.57 32.7723C723.883 32.5662 723.437 32.4631 723.231 32.4631V21.3329H705.72V0H767.42V21.0237H761.034C760.965 21.0237 760.828 20.7833 760.621 20.3023C760.484 19.8214 760.415 19.4092 760.415 19.0656C760.415 18.9969 760.415 18.8252 760.415 18.5503C760.415 18.2068 760.415 17.8633 760.415 17.5198C760.415 17.1075 760.415 16.764 760.415 16.4892C760.415 16.1457 760.415 15.9396 760.415 15.8709L760.107 15.5617C759.9 15.493 759.797 15.3899 759.797 15.2525C759.729 15.1838 759.626 14.9777 759.488 14.6342C759.351 14.2906 759.248 14.0845 759.179 14.0158C759.042 13.9471 758.802 13.8441 758.458 13.7066C758.115 13.5692 757.909 13.4662 757.84 13.3975C757.772 13.2601 757.669 13.054 757.531 12.7791C757.394 12.4356 757.291 12.1951 757.222 12.0577C757.154 12.0577 757.016 11.989 756.81 11.8516C756.673 11.6455 756.604 11.5081 756.604 11.4394C756.536 11.302 756.33 10.9928 755.986 10.5119C755.643 9.96222 755.403 9.65305 755.265 9.58435C755.128 9.37823 754.956 9.13776 754.75 8.86294C754.544 8.58812 754.338 8.3133 754.132 8.03848C753.858 7.76366 753.617 7.42014 753.411 7.00791H752.793C752.793 7.21402 752.862 7.66061 752.999 8.34766C753.205 8.966 753.343 9.37823 753.411 9.58435C753.48 9.58435 753.583 9.6874 753.72 9.89352C753.926 10.0309 754.029 10.134 754.029 10.2027C754.098 10.2714 754.201 10.4775 754.338 10.821C754.544 11.1646 754.647 11.3707 754.647 11.4394L755.265 12.0577C755.334 12.1951 755.334 12.5387 755.265 13.0883C755.265 13.5692 755.265 13.8784 755.265 14.0158C755.403 14.1532 755.712 14.4968 756.192 15.0464C756.742 15.5273 757.085 15.8021 757.222 15.8709C757.36 16.0083 757.497 16.2487 757.634 16.5923C757.772 16.8671 757.84 17.0732 757.84 17.2106C757.909 17.5541 757.978 18.2412 758.046 19.2718C758.115 20.3023 758.149 20.9894 758.149 21.3329H749.909V80.7971H744.553C744.484 80.4536 744.381 79.8352 744.244 78.942C744.107 77.9802 743.969 77.3275 743.832 76.9839C743.832 76.8465 743.729 76.4687 743.523 75.8503C743.385 75.1633 743.283 74.6823 743.214 74.4075C743.145 74.1327 743.042 73.7548 742.905 73.2739C742.768 72.7929 742.664 72.5525 742.596 72.5525L742.39 72.4494C742.321 72.4494 742.252 72.4838 742.184 72.5525C742.184 72.5525 742.149 72.5525 742.081 72.5525H741.978C741.909 72.5525 741.772 72.6555 741.566 72.8616C741.428 72.9991 741.36 73.1021 741.36 73.1708C741.36 73.3769 741.325 73.7205 741.257 74.2014C741.188 74.6823 741.119 75.1976 741.051 75.7473C740.982 76.2282 740.913 76.7091 740.845 77.1901C740.776 77.671 740.742 78.0145 740.742 78.2206C740.742 78.358 740.639 78.5985 740.433 78.942C740.295 79.2169 740.158 79.423 740.021 79.5604C740.021 79.6291 739.918 79.7321 739.712 79.8696C739.574 80.007 739.471 80.11 739.403 80.1787C739.265 80.3161 739.025 80.4536 738.682 80.591C738.407 80.7284 738.235 80.7971 738.167 80.7971H723.54V36.2762C723.54 36.1388 723.677 35.9327 723.952 35.6579C724.295 35.3144 724.57 35.1083 724.776 35.0396C725.051 34.9021 725.566 34.7647 726.321 34.6273C727.145 34.4212 727.695 34.3181 727.969 34.3181Z" fill="url(#paint0_linear_740_279)"/>
<defs>
<linearGradient id="paint0_linear_740_279" x1="0.702148" y1="40.5016" x2="767.42" y2="40.5016" gradientUnits="userSpaceOnUse">
<stop stop-color="#A5FF16"/>
<stop offset="0.510598" stop-color="#0ED4FF"/>
<stop offset="1" stop-color="white"/>
</linearGradient>
</defs>
</svg>
